<?xml version="1.0" encoding="UTF-8"?>
<svg id="Layer_2" data-name="Layer 2" xmlns="http://www.w3.org/2000/svg" viewBox="0 0 1920 1080">
  <circle cx="960" cy="540" r="424" fill="none" stroke="#231f20" stroke-miterlimit="10"/>
  <circle cx="960" cy="540" r="408" fill="none" stroke="#231f20" stroke-miterlimit="10"/>
  <circle cx="960" cy="540" r="392" fill="none" stroke="#231f20" stroke-miterlimit="10"/>
  <circle cx="960" cy="540" r="376" fill="none" stroke="#231f20" stroke-miterlimit="10"/>
  <circle cx="960" cy="540" r="360" fill="none" stroke="#231f20" stroke-miterlimit="10"/>
  <circle cx="960" cy="540" r="344" fill="none" stroke="#231f20" stroke-miterlimit="10"/>
  <circle cx="960" cy="540" r="328" fill="none" stroke="#231f20" stroke-miterlimit="10"/>
  <circle cx="960" cy="540" r="312" fill="none" stroke="#231f20" stroke-miterlimit="10"/>
  <circle cx="960" cy="540" r="296" fill="none" stroke="#231f20" stroke-miterlimit="10"/>
  <circle cx="960" cy="540" r="280" fill="none" stroke="#231f20" stroke-miterlimit="10"/>
  <circle cx="960" cy="540" r="264" fill="none" stroke="#231f20" stroke-miterlimit="10"/>
  <circle cx="960" cy="540" r="248" fill="none" stroke="#231f20" stroke-miterlimit="10"/>
  <circle cx="960" cy="540" r="232" fill="none" stroke="#231f20" stroke-miterlimit="10"/>
  <circle cx="960" cy="540" r="216" fill="none" stroke="#231f20" stroke-miterlimit="10"/>
  <circle cx="960" cy="540" r="200" fill="none" stroke="#231f20" stroke-miterlimit="10"/>
  <circle cx="960" cy="540" r="184" fill="none" stroke="#231f20" stroke-miterlimit="10"/>
  <circle cx="960" cy="540" r="168" fill="none" stroke="#231f20" stroke-miterlimit="10"/>
  <circle cx="960" cy="540" r="152" fill="none" stroke="#231f20" stroke-miterlimit="10"/>
  <circle cx="960" cy="540" r="136" fill="none" stroke="#231f20" stroke-miterlimit="10"/>
  <circle cx="960" cy="540" r="120" fill="none" stroke="#231f20" stroke-miterlimit="10"/>
  <circle cx="960" cy="540" r="104" fill="none" stroke="#231f20" stroke-miterlimit="10"/>
  <circle cx="960" cy="540" r="88" fill="none" stroke="#231f20" stroke-miterlimit="10"/>
  <circle cx="960" cy="540" r="72" fill="none" stroke="#231f20" stroke-miterlimit="10"/>
  <circle cx="960" cy="540" r="56" fill="none" stroke="#231f20" stroke-miterlimit="10"/>
  <circle cx="1032" cy="122" r="106" fill="none" stroke="#ec1c24" stroke-miterlimit="10"/>
  <circle cx="1030.7543" cy="138.1911" r="102" fill="none" stroke="#ec1c24" stroke-miterlimit="10"/>
  <circle cx="1027.7884" cy="153.8605" r="98" fill="none" stroke="#ec1c24" stroke-miterlimit="10"/>
  <circle cx="1024.3576" cy="169.9008" r="94" fill="none" stroke="#ec1c24" stroke-miterlimit="10"/>
  <circle cx="1022" cy="186" r="90" fill="none" stroke="#ec1c24" stroke-miterlimit="10"/>
  <circle cx="1019.7948" cy="202" r="86" fill="none" stroke="#ec1c24" stroke-miterlimit="10"/>
  <circle cx="1015.7948" cy="215.4616" r="82" fill="none" stroke="#ec1c24" stroke-miterlimit="10"/>
  <circle cx="1013.9214" cy="234" r="78" fill="none" stroke="#ec1c24" stroke-miterlimit="10"/>
  <circle cx="1010.7474" cy="249" r="74" fill="none" stroke="#ec1c24" stroke-miterlimit="10"/>
  <circle cx="1008" cy="266" r="70" fill="none" stroke="#ec1c24" stroke-miterlimit="10"/>
  <circle cx="1005.7884" cy="281.4616" r="66" fill="none" stroke="#ec1c24" stroke-miterlimit="10"/>
  <circle cx="1002.7543" cy="297" r="62" fill="none" stroke="#ec1c24" stroke-miterlimit="10"/>
  <circle cx="1000.1494" cy="312.499" r="58" fill="none" stroke="#ec1c24" stroke-miterlimit="10"/>
  <circle cx="997.1445" cy="328.6107" r="54" fill="none" stroke="#ec1c24" stroke-miterlimit="10"/>
  <circle cx="994.3844" cy="343" r="50" fill="none" stroke="#ec1c24" stroke-miterlimit="10"/>
  <circle cx="992" cy="358.7482" r="46" fill="none" stroke="#ec1c24" stroke-miterlimit="10"/>
  <circle cx="988.7543" cy="374.2595" r="42" fill="none" stroke="#ec1c24" stroke-miterlimit="10"/>
  <circle cx="986.3576" cy="390" r="38" fill="none" stroke="#ec1c24" stroke-miterlimit="10"/>
  <circle cx="983.6854" cy="406" r="34" fill="none" stroke="#ec1c24" stroke-miterlimit="10"/>
  <circle cx="980.7474" cy="422" r="30" fill="none" stroke="#ec1c24" stroke-miterlimit="10"/>
  <circle cx="978.067" cy="437.4964" r="26" fill="none" stroke="#ec1c24" stroke-miterlimit="10"/>
  <circle cx="975.1445" cy="453.6063" r="22" fill="none" stroke="#ec1c24" stroke-miterlimit="10"/>
  <circle cx="972.6902" cy="469.0031" r="18" fill="none" stroke="#ec1c24" stroke-miterlimit="10"/>
  <line x1="1384" y1="539.8198" x2="959.7698" y2="540.0001" fill="none" stroke="#ec1c24" stroke-miterlimit="10"/>
  <line x1="1284.5517" y1="267.3472" x2="960.0313" y2="539.8871" fill="none" stroke="#ec1c24" stroke-miterlimit="10"/>
  <line x1="1033.4615" y1="122.3409" x2="960.0093" y2="539.9471" fill="none" stroke="#ec1c24" stroke-miterlimit="10"/>
  <line x1="747.8088" y1="172.8346" x2="959.8884" y2="539.8069" fill="none" stroke="#ec1c24" stroke-miterlimit="10"/>
  <line x1="561.4006" y1="395.1135" x2="959.2213" y2="539.7169" fill="none" stroke="#ec1c24" stroke-miterlimit="10"/>
  <line x1="561.0345" y1="685.4038" x2="960.135" y2="539.9508" fill="none" stroke="#ec1c24" stroke-miterlimit="10"/>
  <line x1="748.121" y1="907.3462" x2="960.0261" y2="539.9548" fill="none" stroke="#ec1c24" stroke-miterlimit="10"/>
  <line x1="1033.8168" y1="957.5968" x2="959.9599" y2="539.7732" fill="none" stroke="#ec1c24" stroke-miterlimit="10"/>
  <line x1="1284.9263" y1="812.4102" x2="959.7696" y2="539.8069" fill="none" stroke="#ec1c24" stroke-miterlimit="10"/>
  <circle cx="970" cy="484.839" r="14" fill="none" stroke="#ec1c24" stroke-miterlimit="10"/>
  <circle cx="1002.7543" cy="504" r="14" fill="none" stroke="#ec1c24" stroke-miterlimit="10"/>
  <circle cx="1015.1445" cy="493.6063" r="18" fill="none" stroke="#ec1c24" stroke-miterlimit="10"/>
  <circle cx="1027.2995" cy="483.4541" r="22" fill="none" stroke="#ec1c24" stroke-miterlimit="10"/>
  <circle cx="1039.581" cy="473.136" r="26" fill="none" stroke="#ec1c24" stroke-miterlimit="10"/>
  <circle cx="1051.9546" cy="462.6131" r="30" fill="none" stroke="#ec1c24" stroke-miterlimit="10"/>
  <circle cx="1064" cy="452.5189" r="34" fill="none" stroke="#ec1c24" stroke-miterlimit="10"/>
  <circle cx="1076.4099" cy="442" r="38" fill="none" stroke="#ec1c24" stroke-miterlimit="10"/>
  <circle cx="1088" cy="432" r="42" fill="none" stroke="#ec1c24" stroke-miterlimit="10"/>
  <circle cx="1101.1487" cy="422" r="46" fill="none" stroke="#ec1c24" stroke-miterlimit="10"/>
  <circle cx="1112" cy="411.4964" r="50" fill="none" stroke="#ec1c24" stroke-miterlimit="10"/>
  <circle cx="1125.7884" cy="401.4616" r="54" fill="none" stroke="#ec1c24" stroke-miterlimit="10"/>
  <circle cx="1138" cy="390.2595" r="58" fill="none" stroke="#ec1c24" stroke-miterlimit="10"/>
  <circle cx="1150" cy="380" r="62" fill="none" stroke="#ec1c24" stroke-miterlimit="10"/>
  <circle cx="1162" cy="370.499" r="66" fill="none" stroke="#ec1c24" stroke-miterlimit="10"/>
  <circle cx="1174.7174" cy="359" r="70" fill="none" stroke="#ec1c24" stroke-miterlimit="10"/>
  <circle cx="1186" cy="348.6107" r="74" fill="none" stroke="#ec1c24" stroke-miterlimit="10"/>
  <circle cx="1198.7879" cy="340" r="78" fill="none" stroke="#ec1c24" stroke-miterlimit="10"/>
  <circle cx="1212" cy="328.6107" r="82" fill="none" stroke="#ec1c24" stroke-miterlimit="10"/>
  <circle cx="1224" cy="320" r="86" fill="none" stroke="#ec1c24" stroke-miterlimit="10"/>
  <circle cx="1234.8764" cy="308" r="90" fill="none" stroke="#ec1c24" stroke-miterlimit="10"/>
  <circle cx="1247.9431" cy="297.4616" r="94" fill="none" stroke="#ec1c24" stroke-miterlimit="10"/>
  <circle cx="1260" cy="288" r="98" fill="none" stroke="#ec1c24" stroke-miterlimit="10"/>
  <circle cx="1272" cy="278.2454" r="102" fill="none" stroke="#ec1c24" stroke-miterlimit="10"/>
  <circle cx="1285.7884" cy="268.2595" r="106" fill="none" stroke="#ec1c24" stroke-miterlimit="10"/>
</svg>